<?xml version="1.0" encoding="UTF-8" standalone="no"?>
<!-- Generator: Adobe Illustrator 19.0.0, SVG Export Plug-In . SVG Version: 6.00 Build 0)  -->

<svg
   xmlns:dc="http://purl.org/dc/elements/1.1/"
   xmlns:cc="http://creativecommons.org/ns#"
   xmlns:rdf="http://www.w3.org/1999/02/22-rdf-syntax-ns#"
   xmlns:svg="http://www.w3.org/2000/svg"
   xmlns="http://www.w3.org/2000/svg"
   xmlns:sodipodi="http://sodipodi.sourceforge.net/DTD/sodipodi-0.dtd"
   xmlns:inkscape="http://www.inkscape.org/namespaces/inkscape"
   version="1.1"
   id="Layer_1"
   x="0px"
   y="0px"
   viewBox="0 0 511.346 511.346"
   style="enable-background:new 0 0 511.346 511.346;"
   xml:space="preserve"
   inkscape:version="0.91 r13725"
   sodipodi:docname="haystraws.svg"
   inkscape:export-filename="/Users/Saskia/Documents/TAOetPCI/PCI/Development/Haysheepmower/haystraws2.png"
   inkscape:export-xdpi="90"
   inkscape:export-ydpi="90"><metadata
     id="metadata47"><rdf:RDF><cc:Work
         rdf:about=""><dc:format>image/svg+xml</dc:format><dc:type
           rdf:resource="http://purl.org/dc/dcmitype/StillImage" /><dc:title /></cc:Work></rdf:RDF></metadata><defs
     id="defs45" /><sodipodi:namedview
     pagecolor="#ffffff"
     bordercolor="#666666"
     borderopacity="1"
     objecttolerance="10"
     gridtolerance="10"
     guidetolerance="10"
     inkscape:pageopacity="0"
     inkscape:pageshadow="2"
     inkscape:window-width="697"
     inkscape:window-height="480"
     id="namedview43"
     showgrid="false"
     inkscape:zoom="0.62538827"
     inkscape:cx="255.673"
     inkscape:cy="154.22381"
     inkscape:window-x="422"
     inkscape:window-y="18"
     inkscape:window-maximized="0"
     inkscape:current-layer="g3358" /><g
     id="g3"
     transform="matrix(-0.59932539,0.23850746,-0.99221275,-0.23734067,642.36287,418.79258)"
     style="fill:#e9c6af;stroke:#9c7f66;stroke-width:6.70111942;stroke-miterlimit:4;stroke-dasharray:none;stroke-opacity:1"><path
       style="fill:#e9c6af;stroke:#9c7f66;stroke-width:6.70111942;stroke-miterlimit:4;stroke-dasharray:none;stroke-opacity:1"
       d="m 487.80831,190.70616 c 0,39.081 -12.883,76.187 -36.635,106.465 4.133,-16.101 6.278,-32.842 6.278,-49.923 0,-109.787 -89.305,-199.105002 -199.092,-199.105002 -17.121,0 -33.914,2.158 -50.067,6.33 30.305,-23.804 67.45,-36.713 106.57,-36.713 95.36,0 172.946,77.586 172.946,172.946002 z"
       id="path5"
       inkscape:connector-curvature="0" /><path
       style="fill:#e9c6af;stroke:#9c7f66;stroke-width:6.70111942;stroke-miterlimit:4;stroke-dasharray:none;stroke-opacity:1"
       d="m 497.25581,198.35655 c 28.3875,23.90103 38.72165,50.53633 30.06002,76.30928 -6.26382,-11.05849 -15.57191,-22.00551 -28.13858,-32.58609 -2.91414,-2.45358 -6.00388,-4.85596 -9.18114,-7.20625 -0.31977,-0.25127 -0.65545,-0.49796 -1.0085,-0.7413 -83.73311,-61.02582 -253.87746,-84.74621 -388.65612,-52.65459 -22.078544,5.25703 -41.920892,11.70849 -59.358542,19.10093 21.543055,-23.75011 59.747232,-42.94469 109.844992,-54.87327 122.04058,-29.05781 277.44707,-5.43594 346.43787,52.65129 z"
       id="path7"
       inkscape:connector-curvature="0" /></g><g
     id="g13" /><g
     id="g15" /><g
     id="g17" /><g
     id="g19" /><g
     id="g21" /><g
     id="g23" /><g
     id="g25" /><g
     id="g27" /><g
     id="g29" /><g
     id="g31" /><g
     id="g33" /><g
     id="g35" /><g
     id="g37" /><g
     id="g39" /><g
     id="g41" /><g
     transform="matrix(0.23691868,0.2648594,-0.68272814,0.16257299,334.3876,313.07642)"
     id="g3358"
     style="stroke:#e0c2a9;stroke-width:7.0012145;stroke-miterlimit:5;stroke-dasharray:none;stroke-opacity:1"><path
       inkscape:connector-curvature="0"
       id="path3362"
       d="m 542.29348,143.76348 c 18.08798,-41.5123 18.61001,-80.530841 1.91339,-111.940791 -2.03573,16.87074 -6.91535,34.62803 -14.92258,53.00486 -1.85708,4.26145 -3.89282,8.51439 -6.02712,12.72764 -0.20993,0.4437 -0.4358,0.88666 -0.67908,1.33109 C 466.0225,208.70454 317.20228,298.17709 182.11512,301.22742 c -22.12902,0.49967 -42.60057,-1.35315 -61.17355,-5.27795 27.88692,24.33346 69.59214,36.92928 119.80452,35.79546 122.31964,-2.76308 257.58783,-87.09304 301.54739,-187.98145 z"
       style="fill:#f2d59f;stroke:#ae973f;stroke-width:8.11565208;stroke-miterlimit:5;stroke-dasharray:none;stroke-opacity:1" /></g></svg>