<?xml version="1.0" encoding="UTF-8" standalone="no"?>
<!-- Generator: Adobe Illustrator 19.0.0, SVG Export Plug-In . SVG Version: 6.00 Build 0)  -->

<svg
   xmlns:dc="http://purl.org/dc/elements/1.1/"
   xmlns:cc="http://creativecommons.org/ns#"
   xmlns:rdf="http://www.w3.org/1999/02/22-rdf-syntax-ns#"
   xmlns:svg="http://www.w3.org/2000/svg"
   xmlns="http://www.w3.org/2000/svg"
   xmlns:sodipodi="http://sodipodi.sourceforge.net/DTD/sodipodi-0.dtd"
   xmlns:inkscape="http://www.inkscape.org/namespaces/inkscape"
   version="1.1"
   id="Layer_1"
   x="0px"
   y="0px"
   viewBox="0 0 511.346 511.346"
   style="enable-background:new 0 0 511.346 511.346;"
   xml:space="preserve"
   inkscape:version="0.91 r13725"
   sodipodi:docname="hay2.svg"
   inkscape:export-filename="/Users/Saskia/Documents/TAOetPCI/PCI/Development/Haysheepmower/hay2.png"
   inkscape:export-xdpi="90"
   inkscape:export-ydpi="90"><metadata
     id="metadata47"><rdf:RDF><cc:Work
         rdf:about=""><dc:format>image/svg+xml</dc:format><dc:type
           rdf:resource="http://purl.org/dc/dcmitype/StillImage" /><dc:title></dc:title></cc:Work></rdf:RDF></metadata><defs
     id="defs45" /><sodipodi:namedview
     pagecolor="#ffffff"
     bordercolor="#666666"
     borderopacity="1"
     objecttolerance="10"
     gridtolerance="10"
     guidetolerance="10"
     inkscape:pageopacity="0"
     inkscape:pageshadow="2"
     inkscape:window-width="697"
     inkscape:window-height="480"
     id="namedview43"
     showgrid="false"
     inkscape:zoom="0.46152702"
     inkscape:cx="255.673"
     inkscape:cy="255.673"
     inkscape:window-x="583"
     inkscape:window-y="65"
     inkscape:window-maximized="0"
     inkscape:current-layer="Layer_1" /><g
     id="g3"><path
       style="fill:#F2D59F;"
       d="M485.188,199.131c0,39.081-12.883,76.187-36.635,106.465c4.133-16.101,6.278-32.842,6.278-49.923   c0-109.787-89.305-199.105-199.092-199.105c-17.121,0-33.914,2.158-50.067,6.33c30.305-23.804,67.45-36.713,106.57-36.713   C407.602,26.185,485.188,103.771,485.188,199.131z"
       id="path5" /><path
       style="fill:#F2D59F;"
       d="M428.672,255.673c0,39.238-12.975,76.474-36.897,106.818c4.185-16.061,6.435-32.907,6.435-50.277   c0-4.028-0.144-8.044-0.379-12.02c-0.013-0.419-0.039-0.837-0.078-1.256c-6.854-103.614-93.333-185.817-198.648-185.817   c-17.252,0-34.006,2.21-49.976,6.357c30.305-23.83,67.463-36.753,106.609-36.753C351.099,82.726,428.672,160.312,428.672,255.673z"
       id="path7" /></g><path
     style="fill:#d8af4b;fill-opacity:1"
     d="M371.673,301.071c-0.34,88.193-72.184,159.841-160.456,159.841  c-69.346,0-125.757-56.424-125.757-125.77c0-54.03,43.959-97.99,97.99-97.99c41.788,0,75.781,33.993,75.781,75.781  c0,31.979-26.028,58.006-58.006,58.006c-24.144,0-43.789-19.645-43.789-43.789c0-17.879,14.544-32.41,32.41-32.41  c12.857,0,23.32,10.45,23.32,23.307c0,7.22,5.859,13.079,13.079,13.079c7.22,0,13.079-5.859,13.079-13.079  c0-27.283-22.195-49.466-49.479-49.466c-32.293,0-58.569,26.276-58.569,58.569c0,38.571,31.377,69.948,69.948,69.948  c46.405,0,84.165-37.76,84.165-84.165c0-56.215-45.738-101.94-101.94-101.94c-68.457,0-124.148,55.691-124.148,124.148  c0,74.068,53.272,135.906,123.507,149.247c-87.749-8.24-156.65-82.308-156.65-172.175c0-95.361,77.586-172.934,172.947-172.934  C290.712,139.281,365.905,210.89,371.673,301.071z"
     id="path9"
     inkscape:export-xdpi="90"
     inkscape:export-ydpi="90" /><path
     style="fill:#5d2b34;fill-opacity:1"
     d="M511.346,199.131c0,53.232-20.757,103.274-58.425,140.89c-0.589,0.589-1.229,1.099-1.897,1.556  l-48.799,48.929c-1.896,2.053-3.832,4.081-5.82,6.056c-0.471,0.484-0.981,0.902-1.504,1.282l-53.429,53.56  c-0.746,0.759-1.556,1.583-2.38,2.407c-0.392,0.379-0.798,0.719-1.216,1.033c-35.889,34.922-84.858,56.476-138.771,56.476  C89.318,511.32,0,422.002,0,312.215c0-54.423,21.96-103.81,57.483-139.791c0.288-0.366,0.589-0.732,0.929-1.073  c0.379-0.379,0.759-0.759,1.138-1.138l0.379-0.379L171.56,58.242c0-0.013,0-0.013,0-0.013  c37.603-37.537,87.552-58.203,140.68-58.203C422.028,0.026,511.346,89.344,511.346,199.131z M448.553,305.596  c23.752-30.278,36.635-67.384,36.635-106.465c0-95.361-77.586-172.947-172.947-172.947c-39.12,0-76.265,12.909-106.57,36.713  c16.153-4.172,32.947-6.33,50.067-6.33c109.787,0,199.092,89.318,199.092,199.105C454.831,272.754,452.686,289.496,448.553,305.596z   M391.776,362.491c23.922-30.344,36.897-67.58,36.897-106.818c0-95.361-77.573-172.947-172.934-172.947  c-39.146,0-76.304,12.922-106.609,36.753c15.97-4.146,32.724-6.357,49.976-6.357c105.314,0,191.794,82.203,198.648,185.817  c0.039,0.419,0.065,0.837,0.078,1.256c0.235,3.976,0.379,7.991,0.379,12.02C398.211,329.584,395.961,346.43,391.776,362.491z   M211.217,460.912c88.272,0,160.116-71.648,160.456-159.841c-5.768-90.181-80.961-161.79-172.568-161.79  c-95.361,0-172.947,77.573-172.947,172.934c0,89.867,68.901,163.935,156.65,172.175C112.573,471.049,59.301,409.21,59.301,335.142  c0-68.457,55.691-124.148,124.148-124.148c56.202,0,101.94,45.725,101.94,101.94c0,46.405-37.76,84.165-84.165,84.165  c-38.571,0-69.948-31.377-69.948-69.948c0-32.293,26.276-58.569,58.569-58.569c27.283,0,49.479,22.182,49.479,49.466  c0,7.22-5.859,13.079-13.079,13.079c-7.22,0-13.079-5.859-13.079-13.079c0-12.857-10.463-23.307-23.32-23.307  c-17.866,0-32.41,14.531-32.41,32.41c0,24.144,19.645,43.789,43.789,43.789c31.979,0,58.006-26.028,58.006-58.006  c0-41.788-33.993-75.781-75.781-75.781c-54.03,0-97.99,43.959-97.99,97.99C85.46,404.489,141.871,460.912,211.217,460.912z"
     id="path11" /><g
     id="g13" /><g
     id="g15" /><g
     id="g17" /><g
     id="g19" /><g
     id="g21" /><g
     id="g23" /><g
     id="g25" /><g
     id="g27" /><g
     id="g29" /><g
     id="g31" /><g
     id="g33" /><g
     id="g35" /><g
     id="g37" /><g
     id="g39" /><g
     id="g41" /></svg>