<?xml version="1.0" encoding="UTF-8" standalone="no"?>
<svg
   xmlns:dc="http://purl.org/dc/elements/1.1/"
   xmlns:cc="http://creativecommons.org/ns#"
   xmlns:rdf="http://www.w3.org/1999/02/22-rdf-syntax-ns#"
   xmlns:svg="http://www.w3.org/2000/svg"
   xmlns="http://www.w3.org/2000/svg"
   xmlns:sodipodi="http://sodipodi.sourceforge.net/DTD/sodipodi-0.dtd"
   xmlns:inkscape="http://www.inkscape.org/namespaces/inkscape"
   width="500.53897"
   height="301.95459"
   id="svg2"
   version="1.1"
   inkscape:version="0.91 r13725"
   sodipodi:docname="scissors.svg"
   inkscape:export-filename="/Users/Saskia/Documents/TAOetPCI/PCI/Development/Haysheepmower/img/scissors.png"
   inkscape:export-xdpi="90"
   inkscape:export-ydpi="90">
  <metadata
     id="metadata18">
    <rdf:RDF>
      <cc:Work
         rdf:about="">
        <dc:format>image/svg+xml</dc:format>
        <dc:type
           rdf:resource="http://purl.org/dc/dcmitype/StillImage" />
        <dc:title>Scissors</dc:title>
      </cc:Work>
    </rdf:RDF>
  </metadata>
  <defs
     id="defs16" />
  <sodipodi:namedview
     pagecolor="#ffffff"
     bordercolor="#666666"
     borderopacity="1"
     objecttolerance="10"
     gridtolerance="10"
     guidetolerance="10"
     inkscape:pageopacity="0"
     inkscape:pageshadow="2"
     inkscape:window-width="697"
     inkscape:window-height="480"
     id="namedview14"
     showgrid="false"
     inkscape:zoom="0.59960589"
     inkscape:cx="-182.95903"
     inkscape:cy="128.07726"
     inkscape:window-x="80"
     inkscape:window-y="9"
     inkscape:window-maximized="0"
     inkscape:current-layer="g6"
     fit-margin-top="0"
     fit-margin-left="0"
     fit-margin-right="0"
     fit-margin-bottom="0" />
  <title
     id="title4">Scissors</title>
  <g
     id="g6"
     style="fill:#483737"
     transform="translate(-13.590582,-103.73402)">
    <title
       id="title8">Layer 1</title>
    <path
       transform="matrix(0,-1,1,0,-67.973,401.121)"
       id="path693"
       d="m 208.41193,88.195068 c -0.82642,0.190132 -92.84684,277.162412 -92.84684,277.162412 0,0 50.51584,15.35062 49.68943,15.54074 -0.82639,0.19013 78.76104,-217.36703 43.15741,-292.703152 z"
       style="fill:#6c535d;fill-rule:evenodd;stroke:#000000;stroke-width:10.00000572;stroke-linejoin:round"
       inkscape:connector-curvature="0" />
    <path
       transform="matrix(0,-1,1,0,84.072,721.948)"
       id="path596"
       d="m 484.79773,228.32547 c 0,0 -45.40192,119.05319 -36.99921,136.7337 -0.3631,10.7858 -33.79651,59.45371 -55.40967,59.92591 -18.63632,1.17169 -79.9342,-13.48941 -70.10641,-73.75012 11.68558,-61.99738 61.9556,-40.508 81.83078,-42.8379 19.87591,-2.33059 53.6582,-79.181 30.2135,-95.56878 26.16473,6.87997 49.81122,17.2749 50.47101,15.49719 z m -89.35559,88.1777 c -67.78772,-17.87939 -80.96695,88.46021 -20.58731,94.693 67.695,2.8793 67.1257,-87.12631 20.58731,-94.693 z"
       style="fill:#6c535d;fill-rule:evenodd;stroke:#000000;stroke-width:10;stroke-linejoin:bevel"
       inkscape:connector-curvature="0" />
    <path
       transform="matrix(0,-1,1,0,-124.49,451.678)"
       id="path674"
       d="m 113.63594,143.00352 c 0.83493,0.1483 106.67928,272.13839 106.67928,272.13839 0,0 -49.67926,17.87371 -48.84432,18.022 0.83493,0.14828 -89.601728,-213.12766 -57.83496,-290.16039 z"
       style="fill:#6c535d;fill-rule:evenodd;stroke:#000000;stroke-width:9.99999332;stroke-linejoin:bevel"
       inkscape:connector-curvature="0" />
    <path
       transform="matrix(0,-1,1,0,201.141,588.769)"
       id="path590"
       d="m 403.5004,190.50781 c 66.80209,-21.2687 85.31689,84.27289 25.32739,93.53681 -67.46439,6.28277 -71.4259,-83.63752 -25.32739,-93.53681 z m -93.68051,-83.56869 c 0,0 51.3366,116.61728 43.83432,134.6983 0.90557,10.75379 36.74609,57.6774 58.3558,57.06119 18.67157,0.23221 79.15399,-17.49551 66.30557,-77.1853 C 463.52451,160.18262 414.39969,184.1749 394.4324,182.8483 374.46429,181.521 336.85681,106.46829 359.44699,88.921203 333.66168,97.109405 310.5683,108.6813 309.81988,106.93912 Z"
       style="fill:#6c5353;fill-rule:evenodd;stroke:#000000;stroke-width:10;stroke-linejoin:bevel"
       inkscape:connector-curvature="0" />
  </g>
</svg>
