<?xml version="1.0" encoding="UTF-8" standalone="no"?>
<!-- Generator: Adobe Illustrator 19.0.0, SVG Export Plug-In . SVG Version: 6.00 Build 0)  -->

<svg
   xmlns:dc="http://purl.org/dc/elements/1.1/"
   xmlns:cc="http://creativecommons.org/ns#"
   xmlns:rdf="http://www.w3.org/1999/02/22-rdf-syntax-ns#"
   xmlns:svg="http://www.w3.org/2000/svg"
   xmlns="http://www.w3.org/2000/svg"
   xmlns:sodipodi="http://sodipodi.sourceforge.net/DTD/sodipodi-0.dtd"
   xmlns:inkscape="http://www.inkscape.org/namespaces/inkscape"
   version="1.1"
   id="Layer_1"
   x="0px"
   y="0px"
   viewBox="0 0 512.001 512.001"
   style="enable-background:new 0 0 512.001 512.001;"
   xml:space="preserve"
   inkscape:version="0.91 r13725"
   sodipodi:docname="sheep_nowool.svg"
   inkscape:export-filename="/Users/Saskia/Downloads/sheep2.png"
   inkscape:export-xdpi="90"
   inkscape:export-ydpi="90"><metadata
     id="metadata71"><rdf:RDF><cc:Work
         rdf:about=""><dc:format>image/svg+xml</dc:format><dc:type
           rdf:resource="http://purl.org/dc/dcmitype/StillImage" /><dc:title></dc:title></cc:Work></rdf:RDF></metadata><defs
     id="defs69" /><sodipodi:namedview
     pagecolor="#ffffff"
     bordercolor="#666666"
     borderopacity="1"
     objecttolerance="10"
     gridtolerance="10"
     guidetolerance="10"
     inkscape:pageopacity="0"
     inkscape:pageshadow="2"
     inkscape:window-width="769"
     inkscape:window-height="583"
     id="namedview67"
     showgrid="false"
     inkscape:zoom="0.43858556"
     inkscape:cx="378.17392"
     inkscape:cy="447.66016"
     inkscape:window-x="450"
     inkscape:window-y="0"
     inkscape:window-maximized="0"
     inkscape:current-layer="Layer_1" /><rect
     x="152.705"
     y="372.12"
     style="fill:#5C6670;"
     width="25.24"
     height="46.683"
     id="rect3" /><rect
     x="152.705"
     y="418.802"
     style="fill:#2D3740;"
     width="25.24"
     height="10.03"
     id="rect5" /><path
     style="fill:#f4d7d7"
     d="m 128.928,305.18671 c 0,-20.06405 16.295,-36.32871 36.394,-36.32871 20.1,0 36.392,16.26466 36.392,36.32871 l 0,43.01905 c 0,20.06504 -16.292,36.32871 -36.392,36.32871 -20.099,0 -36.394,-16.26367 -36.394,-36.32871 l 0,-43.01905 z"
     id="path7"
     inkscape:connector-curvature="0" /><rect
     x="332.755"
     y="372.12"
     style="fill:#5C6670;"
     width="25.24"
     height="46.683"
     id="rect9" /><rect
     x="332.755"
     y="418.802"
     style="fill:#2D3740;"
     width="25.24"
     height="10.03"
     id="rect11" /><path
     style="fill:#f4d7d7"
     d="M308.985,305.25c0-20.099,16.294-36.392,36.394-36.392s36.392,16.293,36.392,36.392v43.094  c0,20.1-16.292,36.392-36.392,36.392s-36.394-16.292-36.394-36.392V305.25z"
     id="path13" /><rect
     x="106.919"
     y="372.12"
     style="fill:#7D868C;"
     width="25.239"
     height="46.683"
     id="rect15" /><rect
     x="106.919"
     y="418.802"
     style="fill:#333E48;"
     width="25.239"
     height="10.03"
     id="rect17" /><path
     style="fill:#f4d7d7"
     d="M83.142,305.25c0-20.099,16.292-36.392,36.392-36.392s36.393,16.293,36.393,36.392v43.094  c0,20.1-16.293,36.392-36.393,36.392s-36.392-16.292-36.392-36.392C83.142,348.344,83.142,305.25,83.142,305.25z"
     id="path19" /><rect
     x="286.969"
     y="372.12"
     style="fill:#7D868C;"
     width="25.24"
     height="46.683"
     id="rect21" /><rect
     x="286.969"
     y="418.802"
     style="fill:#333E48;"
     width="25.24"
     height="10.03"
     id="rect23" /><g
     id="g25"
     style="fill:#f4d7d7"><path
       style="fill:#f4d7d7"
       d="M263.198,305.25c0-20.099,16.294-36.392,36.394-36.392c20.099,0,36.393,16.293,36.393,36.392v43.094   c0,20.1-16.294,36.392-36.393,36.392c-20.1,0-36.394-16.292-36.394-36.392L263.198,305.25L263.198,305.25z"
       id="path27" /><path
       style="fill:#f4d7d7"
       d="m 417.967,231.606 c -0.954,-42.753 -23.893,-80.077 -57.958,-101.125 0.239,-1.582 -1.01855,-3.94553 0.362,-4.851 34.66324,-22.73473 -9.77207,-8.2313 -47.31039,15.35862 -94.3167,34.86988 -131.43658,16.21501 -212.4201,0.65267 C 81.85279,138.0569 78.574864,137.61222 62.209,119.67 c -2.401,0 -4.691,0.447 -6.82,1.229 -2.85,-4.159 -7.634,-6.893 -13.057,-6.893 -4.927,0 -9.324,2.251 -12.227,5.783 -0.697,-0.076 -1.404,-0.118 -2.122,-0.118 -10.977,0 -19.878,8.901 -19.878,19.878 0,10.977 8.9,19.879 19.878,19.879 2.964,0 5.762,-0.67 8.285,-1.839 -2.267,4.36 -3.581,9.295 -3.645,14.533 2.224355,20.24026 4.534248,21.1005 7.046379,35.57133 4.304307,24.79446 5.926906,27.55181 15.039906,61.2194 14.383128,26.55071 18.024072,28.84085 25.442055,49.42605 6.127685,31.59395 40.61266,38.08222 71.29466,38.08222 l 1.135,0 c 4.016,1.782 8.459,2.782 13.136,2.782 4.678,0 9.12,-1 13.137,-2.782 l 10.372,0 c 10.431,9.73 24.426,15.694 39.817,15.694 15.393,0 29.383,-5.964 39.817,-15.694 l 27.097,0 c 19.036,0 37.054,-4.36 53.11,-12.136 3.819,0.847 7.781,1.312 11.856,1.312 29.44961,-23.02313 23.88792,-23.4608 45.51278,-62.17676 10.22186,-19.86801 8.60336,-23.9401 11.53122,-51.81424 z"
       id="path29"
       inkscape:connector-curvature="0"
       sodipodi:nodetypes="ccsccccscsssccsccscsccscscccc" /></g><path
     style="fill:#ffd5d5"
     d="M455.279,114.094c26.85,0,48.615,21.764,48.615,48.616c0,26.846-21.765,48.614-48.615,48.614h-57.564  c-26.849,0-48.614-21.768-48.614-48.614c0-26.853,21.765-48.616,48.614-48.616H455.279z"
     id="path31" /><path
     style="fill:#f4d7d7"
     d="m 400.871,94.789 c -10.64162,3.997426 0.0244,3.997426 -10.64162,3.997426 -16.41416,8.599894 -20.6577,8.783924 -41.33641,26.316154 -26.488,3.661 -53.33797,15.89742 -53.33797,43.39042 0,30.045 24.355,54.399 54.399,54.399 4.568,0 8.998,-0.569 13.235,-1.629 3.724,7.811 11.668,13.222 20.895,13.222 12.793,0 23.163,-10.372 23.163,-23.162 0,-7.368 -3.451,-13.919 -8.814,-18.16 3.779,-7.409 5.921,-15.788 5.921,-24.672 0,-10.894 -3.216,-21.03 -8.729,-29.539 3.102,-2.596 5.713,-5.761 7.668,-9.337 3.886,2.944 8.71,4.709 13.958,4.709 12.792,0 23.163,-10.372 23.163,-23.163 -3.67319,-20.958242 -7.52033,-15.736745 -39.543,-16.372 z"
     id="path33"
     inkscape:connector-curvature="0"
     sodipodi:nodetypes="cccsscsscsccscc" /><path
     style="fill:#4d4d4d"
     d="M 455.279,105.987 C 426.47358,88.866835 422.13784,88.36376 389.40748,96.086172 353.84577,111.43252 321.66306,131.17793 303.03744,136.63662 221.47788,169.06134 198.92921,163.85744 135.29073,145.42549 95.38576,138.31367 91.209189,136.77821 58.136,111.872 53.100707,108.70422 29.040694,110.66975 26.844,112.39912 11.94,119.4431 0,124.501 0,139.549 c 0,14.368 10.884,26.241 24.84,27.81 -0.039,0.302 -0.073,0.606 -0.106,0.91 13.907628,83.40654 27.904243,109.85032 44.696244,158.5799 16.583069,32.21788 20.943901,42.52797 29.377756,60.8551 l 0,44.369 c 0,4.478 3.628,8.106 8.106,8.106 l 25.239,0 c 4.478,0 8.106,-3.628 8.106,-8.106 l 0,-44.359 c 0.735,-0.386 1.455,-0.797 2.165,-1.224 0.707,0.425 1.427,0.827 2.156,1.211 l 0,44.372 c 0,4.478 3.628,8.106 8.106,8.106 l 25.253,0 c 4.478,0 8.106,-3.628 8.106,-8.106 l 0,-44.338 c 6.091,-3.2 11.403,-7.796 15.466,-13.479 27.11026,-4.09141 33.88375,-3.01042 60.171,-2.581 4.208,6.857 10.175,12.362 17.18,16.045 l 0,44.353 c 0,4.478 3.628,8.106 8.106,8.106 l 25.24,0 c 4.478,0 8.106,-3.628 8.106,-8.106 l 0,-44.302 c 0.754,-0.395 1.496,-0.811 2.223,-1.246 0.692,0.413 1.394,0.805 2.106,1.18 l 0,44.368 c 0,4.478 3.628,8.106 8.106,8.106 l 25.245,0 c 4.478,0 8.106,-3.628 8.106,-8.106 l 0,-44.369 c 14.21922,-18.78079 17.09422,-22.39619 20.35291,-46.26313 14.22586,-27.56242 12.18786,-31.349 22.44812,-50.24287 7.7296,-29.38224 16.73624,-46.37116 16.33997,-71.769 l 30.034,0 c 31.276,0 56.722,-25.445 56.722,-56.721 0.003,-31.275 -25.442,-56.721 -56.718,-56.721 z m -331.231,317.979 -9.026,0 0,-31.352 c 1.484,0.151 2.99,0.228 4.513,0.228 1.523,0 3.024,-0.105 4.514,-0.254 -0.001,0 -0.001,31.378 -0.001,31.378 z m 45.787,0 -9.04,0 0,-31.365 c 1.5,0.154 3.01,0.242 4.528,0.242 1.52,0 3.025,-0.083 4.514,-0.233 l 0,31.356 z m -4.514,-47.337 c -3.484,0 -6.845,-0.632 -9.999,-1.824 1.807,-2.445 3.382,-5.084 4.67,-7.902 1.893,0.272 3.805,0.409 5.726,0.409 5.093,0 10.049,-0.935 14.757,-2.782 l 5.675,0 c 0.484,0.41 0.982,0.8 1.476,1.194 -5.273,6.779 -13.429,10.905 -22.305,10.905 z m 138.783,47.337 -9.027,0 0,-31.373 c 1.489,0.15 2.993,0.251 4.515,0.251 1.524,0 3.029,-0.083 4.513,-0.231 l 0,31.353 z m 45.787,0 -9.032,0 0,-31.365 c 1.498,0.154 3.006,0.242 4.52,0.242 1.523,0 3.029,-0.077 4.513,-0.228 l 0,31.35 -10e-4,0 z m -4.513,-47.337 c -3.47,0 -6.82,-0.626 -9.964,-1.81 5.85245,-8.54972 4.68444,-8.03676 14.695,-22.062 3.591,0.63 7.218,0.949 10.815,0.949 4.256,0 8.415,-0.43 12.435,-1.245 -1.998,13.653 -13.781,24.168 -27.981,24.168 z m 7.86637,-35.41927 c -21.51671,15.4442 -32.87635,34.41421 -53.65337,35.41927 -12.253,0 -23.052,-7.818 -26.872,-19.453 -21.45965,-11.89761 -57.3813,-2.11395 -77.961,-6.68 -1.501,-1.4 -3.477,-2.179 -5.529,-2.179 l -10.372,0 c -1.133,0 -2.254,0.238 -3.289,0.697 -38.39099,10.58893 -32.24852,27.00946 -56.034,27.615 C 104.56712,375.74507 79.584715,321.09677 68.976002,289.19332 53.695335,247.83569 50.753946,238.9877 42.361114,176.08194 42.420864,169.1827 40.432407,166.98132 43.462,161.329 c 1.599,-3.078 1.064,-6.831 -1.332,-9.339 -2.397,-2.508 -6.12,-3.213 -9.268,-1.756 -1.558,0.722 -3.199,1.088 -4.878,1.088 -6.491,0 -17.414853,-2.05651 -17.414853,-8.54851 0,-6.491 10.923853,-14.99649 17.414853,-14.99649 0.396,0 0.814,0.023 1.242,0.07 8.128309,-3.04613 10.705922,4.01257 18.669878,5.69522 19.628414,10.91448 23.771821,24.46926 32.651244,23.97241 126.857738,19.42823 149.558398,39.12853 259.602818,-19.84223 45.10893,-19.29098 19.70077,-9.69691 60.12606,-29.95967 16.625,-1.8796 28.5289,-4.72551 32.031,3.45427 0,0.559 -0.03,1.11 -0.09,1.653 -0.026,0.164 -0.048,0.33 -0.064,0.496 -1.046,7.288 -7.33,12.907 -14.903,12.907 -3.283,0 -6.417,-1.059 -9.063,-3.064 -1.88,-1.426 -4.29,-1.964 -6.594,-1.465 -2.308,0.494 -4.285,1.968 -5.415,4.038 -1.462,2.676 -3.4,5.034 -5.757,7.007 -3.141,2.629 -3.827,7.187 -1.6,10.625 4.857,7.496 7.426,16.186 7.426,25.13 0,2.429 -0.19,4.864 -0.564,7.239 3.457,35.593 3.22368,22.01832 3.457,35.593 0,4.478 3.63,8.106 8.106,8.106 l 1.648,0 c -3.61441,25.50973 -16.89486,130.9715 -55.64963,121.77773 z M 455.279,203.218 l -40.985,0 c -1.163,-4.35 -3.259,-8.393 -6.161,-11.868 1.661,-4.218 2.857,-8.6 3.565,-13.089 0.507,-3.209 0.763,-6.495 0.763,-9.767 0,-9.854 -2.309,-19.482 -6.723,-28.193 l 0.041,-0.048 c 3.621,1.439 7.491,2.182 11.471,2.182 13.358,0 24.789,-8.422 29.258,-20.234 l 8.77,0 c 22.336,0 40.509,18.173 40.509,40.51 0,22.335 -18.171,40.507 -40.508,40.507 z m -84.487,-53.285 c -4.478,0 -8.106,3.628 -8.106,8.106 l 0,26.084 c 0,4.478 3.628,8.106 8.106,8.106 4.478,0 8.107,-3.628 8.107,-8.106 l 0,-26.083 c -10e-4,-4.478 -3.63,-8.107 -8.107,-8.107 z m 62.111,-5.47 c -3.35,0 -6.066,2.716 -6.066,6.068 0,3.352 2.717,6.067 6.066,6.067 3.354,0 6.069,-2.716 6.069,-6.067 0.001,-3.352 -2.716,-6.068 -6.069,-6.068 z"
     id="path35"
     inkscape:connector-curvature="0"
     sodipodi:nodetypes="ccccccsccccsssscccssssccccsssscccssssccccscccccscccccscccsccscccscccsccccccsccccsccscsccccsscccccccsssccccccccscccccsccsccscccsccscsssssssscsssscs" /><g
     id="g37" /><g
     id="g39" /><g
     id="g41" /><g
     id="g43" /><g
     id="g45" /><g
     id="g47" /><g
     id="g49" /><g
     id="g51" /><g
     id="g53" /><g
     id="g55" /><g
     id="g57" /><g
     id="g59" /><g
     id="g61" /><g
     id="g63" /><g
     id="g65" /></svg>